<svg
      xmlns="http://www.w3.org/2000/svg"
      xmlns:xlink="http://www.w3.org/1999/xlink"
      width="512"
      height="512"
      viewBox="0 0 384 384"
      version="1.2"
    >
      <defs>
        <symbol overflow="visible" id="a">
          <path
            style="stroke:none"
            d="M10.094 4.703c-1.617 0-2.73-.367-3.344-1.094-.617-.718-.922-1.636-.922-2.75 0-1.039.211-2.28.64-3.718.438-1.438.891-2.82 1.36-4.157.613-1.77 1.352-3.843 2.219-6.218.863-2.375 1.789-4.852 2.781-7.438a387.575 387.575 0 0 1 3.016-7.672 144.558 144.558 0 0 1 3-6.86c-2.48.032-4.559.087-6.235.157-1.68.074-3.183.172-4.515.297a52.275 52.275 0 0 0-4.375.625c.113-1.227.742-2.18 1.89-2.86 1.157-.687 2.704-1.171 4.641-1.453 1.945-.289 4.164-.437 6.656-.437 2.477 0 4.696.102 6.657.297l5.546.562c1.727.18 3.457.29 5.188.328-1.23 1.118-2.637 1.82-4.219 2.11a28.7 28.7 0 0 1-5.015.422c-.399 0-.813-.004-1.25-.016-.43-.02-.86-.031-1.297-.031h-1.297c-1.149 2.875-2.469 6.512-3.969 10.906-1.492 4.387-2.992 9.336-4.5 14.844-.512 1.906-.977 3.621-1.39 5.14a57.177 57.177 0 0 0-.97 4.157 20.373 20.373 0 0 0-.343 3.672v.578c0 .218.015.422.047.61zm0 0"
          />
        </symbol>
        <symbol overflow="visible" id="b">
          <path
            style="stroke:none"
            d="M5.828 2.375c-2.2 0-3.844-.605-4.937-1.813C-.203-.633-.75-2.118-.75-3.89c0-1.613.402-3.32 1.203-5.125.813-1.8 1.89-3.492 3.235-5.078 1.351-1.582 2.835-2.867 4.453-3.86 1.625-.987 3.226-1.483 4.812-1.483.832 0 1.598.218 2.297.656.707.43 1.063 1.308 1.063 2.64 0 1.368-.407 2.653-1.22 3.86-.812 1.21-1.874 2.281-3.187 3.219a19.192 19.192 0 0 1-4.328 2.28c-1.562.595-3.117.966-4.656 1.11-.074.367-.133.711-.172 1.031a9.65 9.65 0 0 0-.047.922c0 .531.063 1.07.188 1.61.125.543.347 1.039.671 1.484.32.45.758.797 1.313 1.047.563.258 1.258.39 2.094.39 1.539 0 3.066-.445 4.578-1.328 1.52-.882 2.926-2.046 4.219-3.484a22.49 22.49 0 0 0 3.296-4.75l.641.484C18.734-6.098 17.5-4.223 16-2.64c-1.492 1.586-3.11 2.813-4.86 3.688-1.742.883-3.511 1.328-5.312 1.328zm-2.64-9.078c.968-.32 2.062-.797 3.28-1.422a24.834 24.834 0 0 0 3.548-2.234c1.132-.864 2.07-1.817 2.812-2.86.738-1.05 1.11-2.156 1.11-3.312 0-.395-.075-.696-.22-.907-.148-.218-.452-.328-.921-.328-.867 0-1.781.336-2.75 1-.969.668-1.906 1.543-2.813 2.625a23.067 23.067 0 0 0-2.437 3.563c-.719 1.293-1.258 2.586-1.61 3.875zm0 0"
          />
        </symbol>
        <symbol overflow="visible" id="c">
          <path
            style="stroke:none"
            d="M5.672 2.75c-1.7 0-3.043-.371-4.031-1.11C.648.91-.047.005-.453-1.077c-.414-1.082-.625-2.16-.625-3.234 0-1.083.148-1.91.437-2.485.282-.582.633-1.016 1.047-1.297a5.89 5.89 0 0 1 1.188-.656c.375-.145.633-.29.781-.438a36.102 36.102 0 0 0 2.969-3.718 27.23 27.23 0 0 0 2.375-4.11v-.64c0-1.332.222-2.274.672-2.828.457-.563.937-.844 1.437-.844.29 0 .504.074.64.219.145.148.22.308.22.484 0 .18-.055.465-.157.86-.105.398-.156.902-.156 1.515 0 1.188.227 2.477.688 3.86a159.09 159.09 0 0 1 1.406 4.374c.469 1.532.703 3.125.703 4.782 0 .468-.027.93-.078 1.375-.055.449-.133.87-.235 1.265 1.25-.219 2.43-.785 3.547-1.703 1.125-.914 2.207-2.379 3.25-4.39l.485.53c-.688 1.981-1.715 3.485-3.078 4.516-1.368 1.024-2.86 1.657-4.485 1.907C12.004-.18 11.094.953 9.844 1.672 8.602 2.39 7.21 2.75 5.672 2.75zm.11-1.89c.425 0 1-.15 1.718-.438C8.227.14 8.79-.594 9.188-1.781c-1.524-.29-2.868-.883-4.032-1.782-1.168-.894-2.043-1.796-2.625-2.703-.793.043-1.187.672-1.187 1.891 0 1.293.383 2.492 1.156 3.594C3.281.313 4.375.859 5.781.859zm3.671-3.5c.07-.364.125-.743.156-1.141a14.4 14.4 0 0 0 .063-1.406c0-1.688-.211-3.368-.625-5.047a97.033 97.033 0 0 1-1.063-4.72 50.299 50.299 0 0 1-2.609 3.907C4.457-9.805 3.582-8.77 2.75-7.937c.54 1.156 1.379 2.242 2.516 3.25 1.132 1 2.53 1.683 4.187 2.046zm0 0"
          />
        </symbol>
        <symbol overflow="visible" id="d">
          <path
            style="stroke:none"
            d="M4.594 2.484c-1.555 0-2.746-.453-3.578-1.359C.19.227-.22-1.098-.22-2.859c0-1.582.297-3.536.89-5.86a72.315 72.315 0 0 1 2.25-7.156c-.366-.07-.71-.133-1.03-.188a4.162 4.162 0 0 1-.922-.25v-.968c.289.043.633.078 1.031.11.395.03.844.07 1.344.108a82.236 82.236 0 0 1 2.437-5.64 58.924 58.924 0 0 1 2.563-4.86c.844-1.425 1.648-2.562 2.422-3.406.78-.843 1.441-1.265 1.984-1.265.281 0 .535.101.766.297.238.199.359.496.359.89 0 .617-.383 1.617-1.14 3a177.58 177.58 0 0 1-2.797 4.938 75.038 75.038 0 0 0-3.235 6.203h1.984c1.188 0 2.438-.016 3.75-.047 1.32-.04 2.649-.129 3.985-.266v.969c-1.98.21-3.758.371-5.328.484a62.81 62.81 0 0 1-4.188.157H6.11a47.194 47.194 0 0 0-2.126 5.89c-.574 2.012-.859 3.977-.859 5.89 0 1.544.234 2.65.703 3.313.469.664 1.242 1 2.328 1 1.875 0 3.707-.828 5.5-2.484 1.801-1.656 3.39-3.906 4.766-6.75l.703.547a23.082 23.082 0 0 1-3.281 5.453C12.53-1.133 11.082.14 9.5 1.078c-1.586.938-3.219 1.406-4.906 1.406zm0 0"
          />
        </symbol>
      </defs>
      <path style="fill:#fff;fill-opacity:1;stroke:none" d="M0 0h384v384H0z" />
      <use xlink:href="#a" x="192" y="192" style="fill:#000;fill-opacity:1" />
      <use
        xlink:href="#b"
        x="213.87"
        y="192"
        style="fill:#000;fill-opacity:1"
      />
      <use
        xlink:href="#c"
        x="231.852"
        y="192"
        style="fill:#000;fill-opacity:1"
      />
      <use
        xlink:href="#d"
        x="250.482"
        y="192"
        style="fill:#000;fill-opacity:1"
      />
      <path
        style="fill:none;stroke-width:1;stroke-linecap:butt;stroke-linejoin:miter;stroke:#ff69b4;stroke-opacity:1;stroke-miterlimit:4"
        d="M0 0h512v512H0zm0 0"
        transform="scale(.75)"
      />
    </svg>